<svg width="24" height="24" viewBox="0 0 24 24" fill="none" xmlns="http://www.w3.org/2000/svg">
<path fill-rule="evenodd" clip-rule="evenodd" d="M4 4H20C21.103 4 22 4.897 22 6V18C22 19.103 21.103 20 20 20H4C2.897 20 2 19.103 2 18V6C2 4.897 2.897 4 4 4ZM11.2637 16.7573C11.7326 17.2261 12.3685 17.4895 13.0315 17.4895C13.5742 17.4882 14.1013 17.3083 14.5315 16.9775C13.9275 16.5215 13.5315 15.8045 13.5315 14.9895C13.5315 14.1745 13.9275 13.4575 14.5315 13.0015C14.1013 12.6707 13.5742 12.4908 13.0315 12.4895C12.3685 12.4895 11.7326 12.7529 11.2637 13.2217C10.7949 13.6906 10.5315 14.3265 10.5315 14.9895C10.5315 15.6525 10.7949 16.2884 11.2637 16.7573ZM15.2637 16.7573C15.7326 17.2261 16.3685 17.4895 17.0315 17.4895C17.6945 17.4895 18.3304 17.2261 18.7993 16.7573C19.2681 16.2884 19.5315 15.6525 19.5315 14.9895C19.5315 14.3265 19.2681 13.6906 18.7993 13.2217C18.3304 12.7529 17.6945 12.4895 17.0315 12.4895C16.3685 12.4895 15.7326 12.7529 15.2637 13.2217C14.7949 13.6906 14.5315 14.3265 14.5315 14.9895C14.5315 15.6525 14.7949 16.2884 15.2637 16.7573ZM7.24013 12.8931V12.3729C8.3754 12.1912 9.18697 11.5382 9.18697 10.4978C9.18697 9.93453 9.01917 9.46933 8.64316 9.14748C8.3464 8.89731 7.94139 8.73638 7.29865 8.65592L6.46895 8.54864C6.18202 8.51303 5.95466 8.415 5.81638 8.29847C5.66825 8.17361 5.60869 8.00344 5.60869 7.84251C5.60869 7.40413 5.9645 7.03789 6.6958 7.03789C7.01772 7.03789 7.37239 7.06337 7.70778 7.20664C7.97625 7.32133 8.30217 7.33007 8.51976 7.13545C8.77963 6.903 8.77877 6.48842 8.4708 6.32498C8.11085 6.13396 7.70867 6.02468 7.24013 5.98079V5.6053C7.24013 5.31926 7.00825 5.08738 6.72221 5.08738C6.43617 5.08738 6.2043 5.31926 6.2043 5.6053V5.99142C5.00014 6.15651 4.28438 6.89084 4.28438 7.88737C4.28438 8.42425 4.4527 8.83534 4.78831 9.13916C5.10528 9.41661 5.54965 9.58632 6.1525 9.66679L7.00292 9.77407C7.32921 9.81846 7.48717 9.88135 7.62546 9.99742C7.7741 10.1227 7.84298 10.3105 7.84298 10.5338C7.84298 11.0439 7.40793 11.3209 6.59739 11.3209C6.14509 11.3209 5.71646 11.2564 5.3478 11.0825C5.06949 10.9513 4.72388 10.9416 4.49566 11.1479C4.23389 11.3847 4.23032 11.8024 4.53568 11.9793C5.01823 12.259 5.56272 12.3866 6.2043 12.4201V12.8931C6.2043 13.1792 6.43617 13.4111 6.72221 13.4111C7.00825 13.4111 7.24013 13.1792 7.24013 12.8931Z" fill="#6782D3"/>
</svg>
