<svg width="24" height="24" viewBox="0 0 24 24" fill="none" xmlns="http://www.w3.org/2000/svg">
<path d="M17.5582 14.8809C16.7228 14.8809 15.9216 15.2127 15.3308 15.8035C14.7401 16.3942 14.4082 17.1954 14.4082 18.0309C14.4082 18.8663 14.7401 19.6675 15.3308 20.2582C15.9216 20.849 16.7228 21.1809 17.5582 21.1809C18.3936 21.1809 19.1949 20.849 19.7856 20.2582C20.3763 19.6675 20.7082 18.8663 20.7082 18.0309C20.7082 17.1954 20.3763 16.3942 19.7856 15.8035C19.1949 15.2127 18.3936 14.8809 17.5582 14.8809Z" fill="#6782D3"/>
<path fill-rule="evenodd" clip-rule="evenodd" d="M4.35352 3.1543C4.35352 2.60201 4.80123 2.1543 5.35352 2.1543H13.2788C13.8095 2.1543 14.3185 2.36526 14.6937 2.74074L19.2524 7.30373V13.2958C18.6633 13.0663 18.0312 12.9453 17.3867 12.9453C16.0233 12.9453 14.7158 13.4868 13.7517 14.4509C12.7877 15.4149 12.2461 16.7225 12.2461 18.0858C12.2461 19.4492 12.7877 20.7567 13.7517 21.7207C14.1162 22.0852 14.5297 22.3892 14.9767 22.6265H5.35352C4.80123 22.6265 4.35352 22.1788 4.35352 21.6265V3.1543ZM10.2982 13.6494C10.2982 14.2093 10.7521 14.6632 11.312 14.6632C11.8719 14.6632 12.3258 14.2093 12.3258 13.6494V11.3472H14.7322C15.2555 11.3472 15.6797 10.923 15.6797 10.3997C15.6797 9.87649 15.2555 9.45231 14.7322 9.45231H12.3258V7.15004C12.3258 6.59016 11.8719 6.13629 11.312 6.13629C10.7521 6.13629 10.2982 6.59016 10.2982 7.15004V9.45231H7.89177C7.36852 9.45231 6.94434 9.87649 6.94434 10.3997C6.94434 10.923 7.36852 11.3472 7.89177 11.3472H10.2982V13.6494Z" fill="#6782D3"/>
</svg>
