<svg width="24" height="24" viewBox="0 0 24 24" fill="none" xmlns="http://www.w3.org/2000/svg">
<path fill-rule="evenodd" clip-rule="evenodd" d="M12 17C13.8565 17 15.637 16.2625 16.9497 14.9497C18.2625 13.637 19 11.8565 19 10C19 8.14348 18.2625 6.36301 16.9497 5.05025C15.637 3.7375 13.8565 3 12 3C10.1435 3 8.36301 3.7375 7.05025 5.05025C5.7375 6.36301 5 8.14348 5 10C5 11.8565 5.7375 13.637 7.05025 14.9497C8.36301 16.2625 10.1435 17 12 17ZM12 7C11.716 7 11.526 7.34 11.146 8.023L11.048 8.199C10.94 8.393 10.886 8.489 10.802 8.553C10.717 8.617 10.612 8.641 10.402 8.688L10.212 8.732C9.474 8.899 9.105 8.982 9.017 9.264C8.929 9.547 9.181 9.841 9.684 10.429L9.814 10.581C9.957 10.748 10.029 10.831 10.061 10.935C10.093 11.039 10.082 11.15 10.061 11.373L10.041 11.576C9.965 12.361 9.927 12.754 10.156 12.928C10.386 13.102 10.732 12.943 11.423 12.625L11.601 12.543C11.798 12.453 11.896 12.408 12 12.408C12.104 12.408 12.202 12.453 12.399 12.543L12.577 12.625C13.268 12.944 13.614 13.102 13.844 12.928C14.074 12.754 14.035 12.361 13.959 11.576L13.939 11.373C13.918 11.15 13.907 11.039 13.939 10.935C13.971 10.832 14.043 10.748 14.186 10.581L14.316 10.429C14.819 9.841 15.071 9.547 14.983 9.264C14.895 8.982 14.526 8.899 13.788 8.732L13.598 8.688C13.388 8.641 13.283 8.618 13.198 8.553C13.114 8.489 13.06 8.393 12.952 8.199L12.854 8.023C12.474 7.34 12.284 7 12 7Z" fill="#6782D3"/>
<path d="M4.49533 13.9951L2.99233 15.5501C2.45233 16.1101 2.18233 16.3891 2.08833 16.6261C1.87533 17.1661 2.05833 17.7641 2.52133 18.0481C2.72533 18.1721 3.09133 18.2111 3.82633 18.2881C4.24033 18.3321 4.44833 18.3541 4.62133 18.4211C5.01033 18.5701 5.31133 18.8831 5.45633 19.2851C5.52033 19.4651 5.54133 19.6791 5.58333 20.1081C5.65833 20.8681 5.69633 21.2481 5.81633 21.4591C6.09033 21.9391 6.66933 22.1281 7.19033 21.9071C7.41833 21.8111 7.68833 21.5311 8.22933 20.9721L10.7113 18.4021C9.40387 18.2012 8.16127 17.6982 7.08223 16.933C6.00319 16.1678 5.11744 15.1625 4.49533 13.9951ZM13.2903 18.4031L15.7723 20.9731C16.3123 21.5331 16.5823 21.8121 16.8103 21.9091C17.3313 22.1291 17.9103 21.9401 18.1843 21.4601C18.3043 21.2501 18.3413 20.8701 18.4163 20.1101C18.4593 19.6801 18.4803 19.4661 18.5443 19.2861C18.6883 18.8841 18.9903 18.5711 19.3793 18.4221C19.5523 18.3551 19.7593 18.3341 20.1743 18.2901C20.9083 18.2121 21.2753 18.1731 21.4793 18.0491C21.9423 17.7651 22.1253 17.1661 21.9123 16.6271C21.8183 16.3901 21.5483 16.1101 21.0083 15.5511L19.5053 13.9951C18.8832 15.1625 17.9975 16.1688 16.9184 16.934C15.8394 17.6992 14.5968 18.2022 13.2893 18.4031H13.2903Z" fill="#6782D3"/>
</svg>
