<svg width="24" height="24" viewBox="0 0 24 24" fill="none" xmlns="http://www.w3.org/2000/svg">
<path d="M1.97266 3.67266C1.97266 2.73377 2.73377 1.97266 3.67266 1.97266H20.3273C21.2662 1.97266 22.0273 2.73377 22.0273 3.67266V20.3273C22.0273 21.2662 21.2662 22.0273 20.3273 22.0273H3.67266C2.73377 22.0273 1.97266 21.2662 1.97266 20.3273V3.67266Z" fill="#6782D3"/>
<path fill-rule="evenodd" clip-rule="evenodd" d="M8.54702 9.33175L10.8795 11.6658L16.395 6.15025C16.4784 6.06561 16.5777 5.99832 16.6872 5.95225C16.7967 5.90618 16.9143 5.88225 17.0331 5.88184C17.1519 5.88143 17.2696 5.90454 17.3794 5.94985C17.4892 5.99515 17.589 6.06176 17.673 6.14582C17.7569 6.22987 17.8234 6.32972 17.8686 6.4396C17.9138 6.54948 17.9367 6.66722 17.9362 6.78602C17.9356 6.90483 17.9116 7.02234 17.8654 7.1318C17.8192 7.24125 17.7518 7.34048 17.667 7.42375L11.517 13.5753C11.4336 13.6593 11.3344 13.726 11.2252 13.7715C11.1159 13.817 10.9987 13.8405 10.8803 13.8405C10.7619 13.8405 10.6447 13.817 10.5354 13.7715C10.4261 13.726 10.3269 13.6593 10.2435 13.5753L7.27352 10.6053C7.10464 10.4364 7.00977 10.2073 7.00977 9.9685C7.00977 9.72967 7.10464 9.50063 7.27352 9.33175C7.35714 9.24813 7.45641 9.1818 7.56566 9.13655C7.67491 9.09129 7.79201 9.068 7.91027 9.068C8.02852 9.068 8.14562 9.09129 8.25487 9.13655C8.36413 9.1818 8.4634 9.24813 8.54702 9.33175Z" fill="white"/>
<path fill-rule="evenodd" clip-rule="evenodd" d="M6.53501 17.6146C6.53509 17.1452 6.91571 16.7647 7.38516 16.7648L17.5619 16.7665C18.0314 16.7666 18.4118 17.1472 18.4118 17.6167C18.4117 18.0861 18.0311 18.4666 17.5616 18.4665L7.38486 18.4648C6.91542 18.4647 6.53493 18.0841 6.53501 17.6146Z" fill="white"/>
</svg>
