<svg width="24" height="24" viewBox="0 0 24 24" fill="none" xmlns="http://www.w3.org/2000/svg">
<path d="M5.77778 22C5.28889 22 4.87022 21.7822 4.52178 21.3467C4.17333 20.9111 3.99941 20.3881 4 19.7778V4.22222C4 3.61111 4.17422 3.08778 4.52267 2.65222C4.87111 2.21667 5.28948 1.99926 5.77778 2H15.5556L20 7.55556V19.7778C20 20.3889 19.8258 20.9122 19.4773 21.3478C19.1289 21.7833 18.7105 22.0007 18.2222 22H5.77778ZM7.55556 17.5556H16.4444V15.3333H7.55556V17.5556ZM7.55556 13.1111H16.4444V10.8889H7.55556V13.1111ZM14.6667 8.66667H18.2222L14.6667 4.22222V8.66667ZM7.55556 8.66667H12V6.44445H7.55556V8.66667Z" fill="#6782D3"/>
</svg>
